{"asset":{"generator":"Khronos glTF Blender I/O v1.2.75","version":"2.0"},"scene":0,"scenes":[{"name":"Scene","nodes":[0]}],"nodes":[{"mesh":0,"name":"Mesh"}],"meshes":[{"name":"Capsule","primitives":[{"indices":4,"attributes":{"POSITION":0,"NORMAL":1,"TEXCOORD_0":2,"TEXCOORD_1":3},"mode":4}]}],"accessors":[{"bufferView":0,"componentType":5126,"count":550,"type":"VEC3","min":[-0.5,-1,-0.5],"max":[0.5,1,0.5]},{"bufferView":1,"componentType":5126,"count":550,"type":"VEC3"},{"bufferView":2,"componentType":5126,"count":550,"type":"VEC2"},{"bufferView":3,"componentType":5126,"count":550,"type":"VEC2"},{"bufferView":4,"componentType":5123,"count":2496,"type":"SCALAR"}],"bufferViews":[{"buffer":0,"byteOffset":0,"byteLength":6600},{"buffer":0,"byteOffset":6600,"byteLength":6600},{"buffer":0,"byteOffset":13200,"byteLength":4400},{"buffer":0,"byteOffset":17600,"byteLength":4400},{"buffer":0,"byteOffset":22000,"byteLength":4992}],"buffers":[{"byteLength":26992,"uri":"data:application/octet-stream;base64,"}]}
