{"asset":{"generator":"Khronos glTF Blender I/O v1.2.75","version":"2.0"},"scene":0,"scenes":[{"name":"Scene","nodes":[0]}],"nodes":[{"mesh":0,"name":"Mesh"}],"meshes":[{"name":"t","primitives":[{"indices":3,"attributes":{"POSITION":0,"NORMAL":1,"TEXCOORD_0":2},"mode":4}]}],"accessors":[{"bufferView":0,"componentType":5126,"count":20904,"type":"VEC3","min":[0,0,0],"max":[64,1,64]},{"bufferView":1,"componentType":5126,"count":20904,"type":"VEC3"},{"bufferView":2,"componentType":5126,"count":20904,"type":"VEC2"},{"bufferView":3,"componentType":5123,"count":31356,"type":"SCALAR"}],"bufferViews":[{"buffer":0,"byteOffset":0,"byteLength":250848},{"buffer":0,"byteOffset":250848,"byteLength":250848},{"buffer":0,"byteOffset":501696,"byteLength":167232},{"buffer":0,"byteOffset":668928,"byteLength":62712}],"buffers":[{"byteLength":731640,"uri":"data:application/octet-stream;base64,"}]}
