{
  "asset": {
    "generator": "Khronos glTF Blender I/O v1.2.75",
    "version": "2.0"
  },
  "nodes": [
    {
      "name": "tree",
      "mesh": 0
    }
  ],
  "scenes": [
    {
      "name": "tree",
      "nodes": [0]
    }
  ],
  "scene": 0,
  "materials": [
    {
      "name": "material_0",
      "pbrMetallicRoughness": {
        "baseColorFactor": [1.0, 0.766, 0.336, 1.0],
        "metallicFactor": 1.0,
        "roughnessFactor": 0.0
      }
    },
    {
      "name": "material_1",
      "pbrMetallicRoughness": {
        "baseColorFactor": [1.0, 0.766, 0.336, 1.0],
        "metallicFactor": 1.0,
        "roughnessFactor": 0.0
      }
    }
  ],
  "meshes": [
    {
      "name": "tree",
      "primitives": [
        {
          "indices": 4,
          "attributes": {
            "POSITION": 0,
            "NORMAL": 1,
            "COLOR_0": 2,
            "TEXCOORD_0": 3
          },
          "mode": 4,
          "material": 0
        },
        {
          "indices": 9,
          "attributes": {
            "POSITION": 5,
            "NORMAL": 6,
            "COLOR_0": 7,
            "TEXCOORD_0": 8
          },
          "mode": 4,
          "material": 1
        }
      ]
    }
  ],
  "accessors": [
    {
      "bufferView": 0,
      "componentType": 5126,
      "count": 5184,
      "type": "VEC3",
      "min": [-6.825050354003906, -0.13500022888183594, -7.002256393432617],
      "max": [7.294281959533691, 14.414693832397461, 6.599100112915039]
    },
    { "bufferView": 1, "componentType": 5126, "count": 5184, "type": "VEC3" },
    { "bufferView": 2, "componentType": 5126, "count": 5184, "type": "VEC4" },
    { "bufferView": 3, "componentType": 5126, "count": 5184, "type": "VEC2" },
    {
      "bufferView": 4,
      "componentType": 5123,
      "count": 15552,
      "type": "SCALAR"
    },
    {
      "bufferView": 5,
      "componentType": 5126,
      "count": 1437,
      "type": "VEC3",
      "min": [-6.825050354003906, -0.13500022888183594, -7.002256393432617],
      "max": [7.294281959533691, 14.414693832397461, 6.599100112915039]
    },
    { "bufferView": 6, "componentType": 5126, "count": 1437, "type": "VEC3" },
    { "bufferView": 7, "componentType": 5126, "count": 1437, "type": "VEC4" },
    { "bufferView": 8, "componentType": 5126, "count": 1437, "type": "VEC2" },
    { "bufferView": 9, "componentType": 5123, "count": 5070, "type": "SCALAR" }
  ],
  "bufferViews": [
    { "buffer": 0, "byteOffset": 0, "byteLength": 62208 },
    { "buffer": 0, "byteOffset": 62208, "byteLength": 62208 },
    { "buffer": 0, "byteOffset": 124416, "byteLength": 82944 },
    { "buffer": 0, "byteOffset": 207360, "byteLength": 41472 },
    { "buffer": 0, "byteOffset": 248832, "byteLength": 31104 },
    { "buffer": 1, "byteOffset": 0, "byteLength": 17244 },
    { "buffer": 1, "byteOffset": 17244, "byteLength": 17244 },
    { "buffer": 1, "byteOffset": 34488, "byteLength": 22992 },
    { "buffer": 1, "byteOffset": 57480, "byteLength": 11496 },
    { "buffer": 1, "byteOffset": 68976, "byteLength": 10140 }
  ],
  "buffers": [
    {
      "byteLength": 279936,
      "uri": "data:application/octet-stream;base64,"
    },
    {
      "byteLength": 79116,
      "uri": "data:application/octet-stream;base64,"
    }
  ]
}
