{
  "accessors": [
    {
      "bufferView": 0,
      "componentType": 5126,
      "count": 499,
      "max": [
        0.0005037732771597803,
        0.0003517216828186065,
        0.0006355677614919841
      ],
      "min": [
        -0.0004520501825027168,
        -0.00028674176428467035,
        1.9352883100509644e-06
      ],
      "name": "Lemon/POSITION",
      "type": "VEC3"
    },
    {
      "bufferView": 0,
      "byteOffset": 12,
      "componentType": 5126,
      "count": 499,
      "name": "Lemon/NORMAL",
      "type": "VEC3"
    },
    {
      "bufferView": 0,
      "byteOffset": 24,
      "componentType": 5126,
      "count": 499,
      "name": "Lemon/TEXCOORD_0",
      "type": "VEC2"
    },
    {
      "bufferView": 1,
      "componentType": 5125,
      "count": 2688,
      "name": "Lemon/INDICES",
      "type": "SCALAR"
    }
  ],
  "asset": {
    "copyright": "Copyright (c) 2018-2020 Chukong Technologies Inc.",
    "generator": "FBX-glTF-conv",
    "version": "2.0"
  },
  "bufferViews": [
    {
      "buffer": 0,
      "byteLength": 15968,
      "byteStride": 32,
      "name": "Lemon",
      "target": 34962
    },
    {
      "buffer": 0,
      "byteLength": 10752,
      "byteOffset": 15968
    }
  ],
  "buffers": [
    {
      "byteLength": 26720,
      "uri": "out.bin"
    }
  ],
  "extras": {
    "FBX-glTF-conv": {
      "animationFrameRate": 24.0
    }
  },
  "materials": [
    {
      "name": "Lemon PBR",
      "pbrMetallicRoughness": {
        "baseColorFactor": [
          0.800000011920929,
          0.800000011920929,
          0.800000011920929,
          1.0
        ],
        "metallicFactor": 0.4000000059604645,
        "roughnessFactor": 0.22941572964191437
      }
    }
  ],
  "meshes": [
    {
      "name": "Lemon",
      "primitives": [
        {
          "attributes": {
            "NORMAL": 1,
            "POSITION": 0,
            "TEXCOORD_0": 2
          },
          "indices": 3,
          "material": 0
        }
      ]
    }
  ],
  "nodes": [
    {
      "mesh": 0,
      "name": "Lemon",
      "rotation": [
        -0.7071068286895752,
        0.0,
        0.0,
        0.7071067094802856
      ],
      "scale": [
        100.0,
        100.0,
        100.0
      ]
    }
  ],
  "scenes": [
    {
      "name": "Scene",
      "nodes": [
        0
      ]
    }
  ]
}